HIERARCHY
ROOT Hips
{
	OFFSET 0.00000 0.00000 0.00000
	CHANNELS 6 Xposition Yposition Zposition Zrotation Yrotation Xrotation 
	JOINT LHipJoint
	{
		OFFSET 0 0 0
		CHANNELS 3 Zrotation Yrotation Xrotation
		JOINT LeftHip
		{
			OFFSET 1.56857 -1.73443 1.15205
			CHANNELS 3 Zrotation Yrotation Xrotation
			JOINT LeftKnee
			{
				OFFSET 2.39362 -6.57643 0.00000
				CHANNELS 3 Zrotation Yrotation Xrotation
				JOINT LeftAnkle
				{
					OFFSET 2.50952 -6.89485 0.00000
					CHANNELS 3 Zrotation Yrotation Xrotation
					JOINT LeftToe
					{
						OFFSET 0.17171 -0.47178 1.88682
						CHANNELS 3 Zrotation Yrotation Xrotation
						End Site
						{
							OFFSET 0.00000 -0.00000 0.98146
						}
					}
				}
			}
		}
	}
	JOINT RHipJoint
	{
		OFFSET 0 0 0
		CHANNELS 3 Zrotation Yrotation Xrotation
		JOINT RightHip
		{
			OFFSET -1.28153 -1.73443 1.15205
			CHANNELS 3 Zrotation Yrotation Xrotation
			JOINT RightKnee
			{
				OFFSET -2.26861 -6.23296 0.00000
				CHANNELS 3 Zrotation Yrotation Xrotation
				JOINT RightAnkle
				{
					OFFSET -2.54143 -6.98254 0.00000
					CHANNELS 3 Zrotation Yrotation Xrotation
					JOINT RightToe
					{
						OFFSET -0.23309 -0.64041 1.93119
						CHANNELS 3 Zrotation Yrotation Xrotation
						End Site
						{
							OFFSET -0.00000 -0.00000 1.02013
						}
					}
				}
			}
		}
	}
	JOINT lowerback
	{
		OFFSET 0 0 0
		CHANNELS 3 Zrotation Yrotation Xrotation
		JOINT Chest
		{
			OFFSET -0.07096 2.10460 -0.27878
			CHANNELS 3 Zrotation Yrotation Xrotation
			JOINT Chest2
			{
				OFFSET -0.00826 2.13662 -0.08279
				CHANNELS 3 Zrotation Yrotation Xrotation
				JOINT lowerneck
				{
					OFFSET 0 0 0
					CHANNELS 3 Zrotation Yrotation Xrotation
					JOINT Neck
					{
						OFFSET 0.03239 1.77799 0.24435
						CHANNELS 3 Zrotation Yrotation Xrotation
						JOINT Head
						{
							OFFSET 0.01026 1.74194 -0.49664
							CHANNELS 3 Zrotation Yrotation Xrotation
							End Site
							{
								OFFSET 0.00170 1.83057 -0.19653
							}
						}
					}
				}
				JOINT LeftCollar
				{
					OFFSET 0 0 0
					CHANNELS 3 Zrotation Yrotation Xrotation
					JOINT LeftShoulder
					{
						OFFSET 3.19178 1.35907 -0.31412
CHANNELS 3 Zrotation Xrotation Yrotation
						JOINT LeftElbow
						{
OFFSET 0 -4.852470 -0.000000
CHANNELS 3 Zrotation Xrotation Yrotation
							JOINT LeftWrist
							{
OFFSET 0 -3.555840 0.000000
CHANNELS 3 Zrotation Xrotation Yrotation
								JOINT lhand
								{
									OFFSET 0 0 0
CHANNELS 3 Zrotation Xrotation Yrotation
									JOINT LFingers
									{
OFFSET 0 -0.693200 0.000000
CHANNELS 3 Zrotation Xrotation Yrotation
										End Site
										{
OFFSET 0 -0.558880 0.000000
										}
									}
								}
								JOINT LThumb
								{
OFFSET 0 0.000000 0.000000
CHANNELS 3 Zrotation Xrotation Yrotation
									End Site
									{
OFFSET 0 -0.567410 0.567410
									}
								}
							}
						}
					}
				}
				JOINT RightCollar
				{
					OFFSET 0 0 0
					CHANNELS 3 Zrotation Yrotation Xrotation
					JOINT RightShoulder
					{
						OFFSET -3.28999 1.24191 -0.26899
CHANNELS 3 Zrotation Xrotation Yrotation
						JOINT RightElbow
						{
OFFSET 0 -4.644620 0.000000
CHANNELS 3 Zrotation Xrotation Yrotation
							JOINT RightWrist
							{
OFFSET 0 -3.407030 0.000000
CHANNELS 3 Zrotation Xrotation Yrotation
								JOINT rhand
								{
									OFFSET 0 0 0
CHANNELS 3 Zrotation Xrotation Yrotation
									JOINT RFingers
									{
OFFSET 0 -0.619580 0.000000
CHANNELS 3 Zrotation Xrotation Yrotation
										End Site
										{
OFFSET 0 -0.499520 0.000000
										}
									}
								}
								JOINT RThumb
								{
OFFSET 0 0.000000 0.000000
CHANNELS 3 Zrotation Xrotation Yrotation
									End Site
									{
OFFSET 0 -0.507150 0.507150
									}
								}
							}
						}
					}
				}
			}
		}
	}
}
MOTION
Frames: 5
Frame Time: 0.008333333333333333
35.005704 16.838627 13.918165 -171.312538 61.028811 -170.865214 0.000000 0.000000 0.000000 -38.875442 -8.398910 10.700026 0.310832 3.581679 9.902890 0.405736 -2.710360 -11.406930 3.457779 11.397768 33.638008 0.000000 0.000000 0.000000 3.289759 4.163281 -20.464197 -6.284148 -14.693801 46.103609 -0.176531 -3.722682 -10.198764 -0.049263 1.420219 -3.906055 -5.518604 0.994174 11.059191 -0.651858 0.976191 4.341723 2.303578 0.552276 -1.726998 -0.439392 -1.375394 -22.211647 -3.537862 -0.441763 24.680335 -1.296743 -0.608273 11.772003 0.000000 0.000000 0.000000 15.689281 4.785734 -59.692627 55.739929 -55.049907 30.824858 18.585902 -21.133049 20.342596 0.000000 0.000000 0.000000 -7.125000 0.000000 0.000000 -6.326252 8.722001 -5.327343 0.000000 0.000000 0.000000 -11.000784 20.764053 36.520757 -21.316661 -32.196134 -6.217813 -27.683982 4.238298 32.840087 0.000000 0.000000 0.000000 7.125000 0.000000 0.000000 6.027582 65.973859 -3.056310
35.462582 16.877724 13.834500 -173.269661 56.559859 -171.675466 0.000000 0.000000 0.000000 -38.024861 -6.475078 12.362373 0.192038 2.820004 7.778138 0.246074 -5.163351 -9.006701 3.703906 11.751901 34.864698 0.000000 0.000000 0.000000 2.453198 3.503620 -21.865415 -4.646672 -12.962811 39.248916 -0.255255 -4.803590 -12.539093 -0.033318 1.174938 -3.230371 -6.172861 0.434346 10.285663 -0.454129 0.207295 4.152901 2.974750 0.152553 -1.436602 -1.276391 -2.316915 -22.572293 -2.972167 -1.627798 24.867407 -1.148957 -1.148627 11.907015 0.000000 0.000000 0.000000 16.908376 0.500434 -63.222491 65.686020 -57.619038 39.114647 18.343621 -18.808465 20.417874 0.000000 0.000000 0.000000 -7.125000 0.000000 0.000000 -6.486423 8.676723 -5.469533 0.000000 0.000000 0.000000 -11.079971 24.810322 34.006793 -21.450005 -32.349776 -6.289060 -26.309631 3.025447 33.290732 0.000000 0.000000 0.000000 7.125000 0.000000 0.000000 8.119036 66.033926 -4.131999
35.908062 16.878997 13.764419 -173.626038 52.414044 -170.942811 0.000000 0.000000 0.000000 -36.217298 -5.337209 13.397916 0.151710 2.509659 6.916416 0.162014 -7.135291 -8.159948 3.703504 11.753084 34.866644 0.000000 0.000000 0.000000 2.521653 3.202569 -23.092106 -3.121751 -10.875768 31.877088 -0.303757 -6.275302 -14.574530 -0.389457 3.962773 -10.977454 -6.291075 -0.010082 9.433589 -0.036921 -0.352640 3.953248 3.533947 -0.145889 -1.118846 -2.099476 -3.294610 -22.296987 -2.475342 -2.885390 24.488332 -1.023936 -1.726393 11.715308 0.000000 0.000000 0.000000 17.601433 -4.269795 -65.782378 75.380595 -59.161884 47.376052 18.805046 -18.077921 21.721124 0.000000 0.000000 0.000000 -7.125000 0.000000 0.000000 -6.278955 7.270044 -5.467645 0.000000 0.000000 0.000000 -11.284379 28.778645 32.299982 -21.954258 -32.924858 -6.561121 -25.510096 1.634340 32.957546 0.000000 0.000000 0.000000 7.125000 0.000000 0.000000 8.873421 65.467871 -4.403736
36.370624 16.834165 13.669155 -174.141359 49.050639 -170.669240 0.000000 0.000000 0.000000 -34.536725 -3.620348 14.428402 0.123506 2.265327 6.239443 0.010301 -9.288157 -6.695790 4.179119 12.394903 37.143753 0.000000 0.000000 0.000000 2.268623 3.395117 -23.117386 -1.725791 -8.266509 23.528638 -0.418718 -6.443914 -16.268052 -0.538091 4.699668 -13.054041 -6.491863 -0.293729 8.432434 0.130042 -0.675409 3.978219 3.841389 -0.334306 -0.500541 -3.332353 -4.097202 -22.304505 -1.312110 -3.927036 24.370005 -0.560520 -2.158561 11.725326 0.000000 0.000000 0.000000 18.174285 -9.436754 -67.593297 83.787699 -59.852403 54.622688 19.940928 -18.843882 23.103412 0.000000 0.000000 0.000000 -7.125000 0.000000 0.000000 -5.674189 5.671502 -5.111130 0.000000 0.000000 0.000000 -11.402259 32.476691 30.922780 -22.675188 -33.731735 -6.957134 -22.681735 -0.889749 32.696665 0.000000 0.000000 0.000000 7.125000 0.000000 0.000000 12.119587 64.416737 -5.737643
36.814583 16.747292 13.538485 -175.377538 46.226838 -171.040262 0.000000 0.000000 0.000000 -33.905171 -2.605384 15.898113 0.098890 2.026896 5.579938 -0.078431 -10.843388 -6.329799 4.948316 13.324667 40.597501 0.000000 0.000000 0.000000 1.101874 3.219893 -22.969169 -0.750069 -5.506416 15.364822 -0.553700 -4.562277 -16.471993 -0.888816 5.998391 -16.783176 -6.784526 -0.588031 7.580500 -0.096065 -1.028405 3.952845 3.785517 -0.529154 -0.013052 -3.606073 -4.843811 -21.664602 -1.110183 -4.983822 23.824614 -0.591741 -2.637438 11.417884 0.000000 0.000000 0.000000 18.511414 -14.246116 -68.545020 90.888485 -59.991549 60.769380 22.568725 -20.758528 23.856764 0.000000 0.000000 0.000000 -7.125000 0.000000 0.000000 -4.118118 4.444301 -3.794979 0.000000 0.000000 0.000000 -12.013121 36.232699 31.503649 -23.695623 -34.839931 -7.532307 -20.500610 -3.351226 31.761795 0.000000 0.000000 0.000000 7.125000 0.000000 0.000000 13.935810 62.916050 -6.121585
